<?xml version="1.0" encoding="utf-8" ?>
<svg baseProfile="tiny" height="100%" version="1.2" width="100%" xmlns="http://www.w3.org/2000/svg" xmlns:ev="http://www.w3.org/2001/xml-events" xmlns:xlink="http://www.w3.org/1999/xlink"><defs /><path d="M 263.71758433517573 185.97195720317586 C 264.06946348602816 184.6263692632285 264.8127572415789 184.12318378651895 265.92642134714725 184.47664704276832 C 266.84959189600585 184.76964999279744 268.480032120993 184.3694771404513 269.5496218471187 183.58737403755467 C 270.94887069201116 182.56421830168304 271.85403683377524 182.46389818775077 272.77677908501016 183.2297062384127 C 275.0875503314762 185.1474760396907 278.80765466322106 182.54221005499986 279.5713578170963 178.47132225978243 C 280.33866047854036 174.3812474396639 279.16967649122205 172.57340240951675 275.7288558599131 172.52885585991305 C 273.8719105188932 172.50481493578226 273.4165691856566 173.1674465147471 273.0 176.5 C 272.4438781374156 180.94897490067532 269.7335117653699 182.14737723678803 269.1728726156663 178.19218392217755 C 268.7056166702924 174.8957898113991 271.42800289314647 171.28454217089563 274.96611552101393 170.507442280021 C 278.81302380461415 169.66251948591756 278.8432372983636 168.18991508448806 275.04086000673954 166.86439922201498 C 269.92856462105146 165.08224345270074 269.7492249299805 158.74847356765986 274.77959268223333 157.63717739498696 C 276.3053357583346 157.3001140778579 279.2211037404485 155.00188945400046 281.41917916922375 152.40381820789224 C 284.7487755221567 148.46831698147545 285.16247254257667 147.4898066268823 284.16917916922375 145.8992911208968 C 282.478022795909 143.19131933032304 282.70678694222016 142.7095921473438 285.3668640942671 143.37722901308229 C 286.668639346114 143.70395380313968 289.935425451295 143.31744026245084 292.62638877244706 142.5183100337738 C 295.31735209359914 141.71917980509673 300.43976325117893 141.11315870821133 304.00952467817996 141.17159648513956 C 310.00004859607816 141.26966267459122 316.3700896137029 140.43192747676054 318.30052012891537 139.29216276281429 C 318.7408061998188 139.0322090769897 317.9278069488208 137.81139038635857 316.49385512669744 136.57923233918956 C 314.1754087378392 134.58705078128233 314.05963867022194 134.19539373073013 315.448501820301 133.04273969307806 C 317.74948452455163 131.1330936602985 323.5422757549523 131.9971070773165 348.0 137.897900193891 C 352.675 139.0258141217607 357.7375 139.96020591226375 359.25 139.97432639500886 L 362.0 148.93664151591184 L 358.75 158.18664151591184 C 356.9625 158.35898868216034 351.9578633170244 158.07511094688877 347.62858514894316 157.55580210419726 C 340.75411901644725 156.73119095361122 339.6035546755475 156.82168608994883 338.54429718965145 158.27030701990088 C 336.75973340973 160.7108434115239 328.54046662061234 163.96859737835305 320.0234931879294 165.611134888557 C 315.9114144412905 166.40416819312833 312.1742910419496 167.42570895805036 311.71877452272736 167.88122547727266 C 311.26325800350514 168.336741996495 312.9325838767844 169.28116792388406 315.42838757445907 169.97994976035952 C 319.6979569639073 171.17535528912677 322.8285914047002 171.0808627942069 334.639220813851 169.40010577135004 C 340.00904568345 168.63593219952523 343.44399059244626 170.30187889758503 342.0127127698097 172.97624597232624 C 340.50490824786374 175.79360449270771 340.77639374055633 177.0 342.9182125317647 177.0 C 345.91367699335274 177.0 348.0 175.919541791894 348.0 174.3682603487518 C 348.0 172.67590740685728 351.0074719264586 171.42134383660817 357.3413740324414 170.4715165573736 L 362.0 178.8864562249372 L 312.5936196151099 188.0 C 263.4518461210456 188.0 263.1900796117292 187.9891383644228 263.71758433517573 185.97195720317586 Z" fill="blue" /><path d="M 41.5 174.44734623971698 C 39.3 173.66786777985664 35.82635712751018 173.02333732415926 33.78079361668928 173.01505633816726 C 31.73523010586838 173.00677535217528 28.241176052372744 172.05114864318128 26.016229053365645 170.89144142929172 C 23.22163924528872 169.43481978314222 20.970519326330326 168.96050842839156 18.73543543667637 169.35737695990986 C 15.369161380667794 169.95510317836647 4.816058642467642 166.94817592740293 4.24263308991884 165.22789926975653 C 4.072549508346465 164.7176485250394 4.626735108830191 163.72474548891978 5.474156646549343 163.02144807837956 C 6.7019348718383505 162.00248265429144 8.234402995280409 161.98264353132478 13.018132396368877 162.9237847989491 C 16.31989752105047 163.57336740580254 19.491455626342635 163.8142977077078 20.06603929701813 163.45918546984967 C 22.257519189994774 162.1047764103281 20.31249553595647 159.499113817226 15.991940753280765 158.00129494292082 C 8.070529439748434 155.25515701079266 10.458996580620626 149.05031294577563 19.472506243405427 148.9593593203873 C 22.456436668058824 148.92924904146352 24.40241868734946 148.14747658528483 26.982764790492933 145.9422125982229 C 30.461482610719433 142.96916525362434 30.467344375911207 142.9681124837189 32.027316164981514 145.0362138589689 C 33.314956665062525 146.7432774787746 34.040059911511456 146.93526755466257 36.15816679084067 146.12996475447878 C 38.9246319038378 145.07815659321503 40.51280780224784 142.4349666402352 38.95632605379656 141.47300801682343 C 37.39426470017413 140.50760100777214 37.86203645315195 139.26934100587937 40.0 138.7102509790709 C 41.85834505187093 138.22428283129702 42.51003741763296 139.09200654695246 42.05356733061842 141.44456116603953 C 41.952766204563815 141.96406980736126 42.417307894169205 143.41122984098578 43.08588219640818 144.66047235187182 C 44.06037520070164 146.4813291862545 44.03114041374146 147.25755180963066 42.93848277708026 148.574123719015 C 41.76779737951641 149.9847133286467 41.84404134494153 150.41279188600637 43.478876493763835 151.6082125331827 C 44.52573702080913 152.3736956399322 46.40712777606019 153.0 47.65974483876621 153.0 C 49.0921242737978 153.0 49.75607250020979 153.4720899385087 49.44902602362173 154.27224023038366 C 49.180513612586246 154.9719723570947 50.07373432723985 157.8514373699176 51.43396094507417 160.6710513699901 C 56.54338875544503 171.26238519451041 51.65281439627019 178.04457357101353 41.5 174.44734623971698 Z" fill="blue" /><path d="M 119.63708183653387 158.0480857118381 C 118.00133359752289 157.47429621171452 117.97125700116366 157.2687440011932 119.35501082229618 156.12033032994407 C 121.1153434586855 154.6593840006895 124.14919561965907 154.94409088094974 124.70802543602206 156.622675206951 C 125.17640818783602 158.02957928175718 122.07200016939876 158.9022089440912 119.63708183653387 158.0480857118381 Z" fill="blue" /><path d="M 271.4730080168234 153.95632605379654 C 270.5679005789354 152.49183145582344 271.8838818787581 151.0182108886972 273.53202501119836 151.65066275038777 C 274.3394112550393 151.96048592227726 275.0 152.56768768460276 275.0 153.0 C 275.0 154.23915503688673 272.1289305520265 155.01763100974205 271.4730080168234 153.95632605379654 Z" fill="blue" /><path d="M 294.3225801490329 45.60833235090247 C 293.3201610670648 44.29291514389884 292.00866177632616 42.3926312145311 291.40813728072476 41.385479174529735 C 290.36536435776935 39.63662315898774 290.11201497402345 39.66265310553598 285.7731017376642 41.964441206386994 C 281.40765582322405 44.28030486011572 281.00049410107687 44.32017889641554 275.3649644569394 42.983727699126504 C 268.9412412098783 41.460358438968505 264.0 37.577110926820815 264.0 34.05217222985936 C 264.0 31.506412702994293 259.73451871937505 29.608588832541066 255.7821059334267 30.395816827424284 C 253.85476269610294 30.779698429458435 252.78211931056956 30.437276515475656 252.09438468233688 29.218578813314664 C 251.317642886656 27.842156276614272 250.87324717476145 27.748865715354032 249.86227874891028 28.75 C 247.36107636008293 31.22687207657876 246.16630678338922 30.17898004615544 246.72682562920247 26.000000000000007 C 247.155828005188 22.80154845392287 246.9481989959684 22.000000000000007 245.69068610100078 22.000000000000004 C 244.8257274392628 22.0 243.83991869381242 22.45 243.5 23.0 C 242.58047794183153 24.4878179435218 240.0 24.20945420534369 240.0 22.622444715442175 C 240.0 21.86478930893537 240.675 20.68468918698639 241.5 19.999999999999996 C 242.325 19.315310813013603 243.0 18.371460691064623 243.0 17.90255528455782 C 243.0 16.926000870671892 237.84054795215627 17.662123555398548 233.68877782955371 19.23103005254405 C 231.36494872594565 20.1091785220506 230.06926963070092 19.889681221134772 226.21546307363295 17.96499710978892 C 223.651312151622 16.684398183608764 220.06404952498573 14.62595492056867 218.2437683477746 13.390678747477605 C 216.42348717056345 12.155402574386539 214.3864788107278 10.941113685208544 213.71708310369536 10.69225899374873 C 212.8181463158208 10.358070060897452 212.89210097673876 9.843810841139554 214.0 8.724937116479392 C 215.5928501731416 7.116308379897932 223.54611071797092 5.771311582857923 231.0 5.8500224295029355 L 232.0 4.340871955832711 C 230.075 3.484703933831725 225.125 2.2126143013399693 221.0 1.5140061058510312 C 214.5779000061676 0.4263620602896321 224.17121006105924 0.2262892441459595 287.75 0.12190469339011756 L 362.0 16.799194981796344 L 357.25 33.41746269664658 C 348.1477139282251 33.070757066767015 348.7939449851164 33.47735936882838 349.0371225446321 28.25 C 349.35514911987366 21.413681710861034 349.3846962471034 21.47722251979209 344.9598674832529 19.481902756447308 C 341.1316894922223 17.75563500445916 340.6418024707537 17.747667331655908 335.62197541288333 19.330028415163916 C 332.7082076583911 20.248512786823767 328.6621441325749 21.000000000000004 326.6307231332918 21.0 C 324.0855301150685 20.999999999999996 322.73560513899736 21.525427026854523 322.28870506423704 22.69002995352524 C 321.9266272135068 23.63358970761401 322.16133483751844 24.553778279172818 322.82008986057576 24.773363286858576 C 325.19612939518316 25.565376465061053 323.97624067293276 29.51891054314676 320.4999705098734 32.29263184875378 C 318.574986729443 33.82857936556836 317.0 35.98020252392078 317.0 37.0740166450925 C 317.0 39.86747443295551 314.3806275221965 40.55193320941571 310.5963422774587 38.74733335235055 C 306.5772351301395 36.830754734587195 305.0632880750415 37.60766089251762 301.343486336913 43.49558444504649 C 298.10538023532337 48.621051478869944 296.8958122293716 48.98503758026188 294.3225801490329 45.60833235090247 Z" fill="blue" /><path d="M 13.066684839057302 29.580350315541594 C 11.677097070549904 27.905999484817304 12.190897039948588 27.489146475023908 16.5 26.79485431778352 C 19.79380807109172 26.264148708654425 18.772381090526476 24.025296205891763 14.328809337491661 22.035849767069845 C 10.364373964927603 20.260919086924844 10.079361120066489 20.254825606243113 8.57880933749166 21.912916662293423 C 7.710464201871246 22.872427236774517 6.999999999999998 24.129447919006328 6.999999999999998 24.706295956141894 C 6.999999999999999 26.065758312320206 5.079101099600885 27.577688900546907 2.2500000000000018 28.444998858509457 L 1.7763568394002505e-15 14.567387670557068 L 29.083333333333336 3.552713678800501e-15 C 51.910161361922526 6.3411555417504886e-15 58.07517413889304 0.26890423945892383 57.74136411306186 1.2500000000000036 C 57.291879600303716 2.5710728131902396 51.91120312436698 2.679978285180936 46.3449497466226 1.4806646554813678 C 43.74999379706447 0.9215514014533601 41.93038201496942 1.5364704224750483 36.094949746622596 4.944546362278897 C 28.808412974076695 9.200112962496657 26.984952585255638 12.0 31.5 12.0 C 32.875 12.0 34.0 12.45 34.0 13.0 C 34.0 13.55 33.584526376874564 14.0 33.07672528194348 14.0 C 32.5689241870124 14.0 30.768924187012395 15.16500213889693 29.07672528194348 16.588893641993177 C 25.499535408672056 19.598900474083457 24.95244937043868 23.492796628689586 27.994953129732462 24.288429234706655 C 30.258422494298646 24.880339770122923 31.710748460543815 27.71972755668056 30.38278255717558 28.956784597238514 C 29.89725215072901 29.40907693861284 26.093189020257427 30.084661825575626 21.92930893390539 30.458084346044707 C 15.717500762264672 31.01516788736175 14.12672547143292 30.857621139050696 13.066684839057302 29.580350315541594 Z" fill="blue" /><path d="M 60.66666666666667 20.333333333333336 C 59.51620788545209 19.18287455211876 60.00453748090739 8.574195920991878 61.28180337187046 6.9698434272322976 C 61.95181151734171 6.128257312210061 65.28274502847775 4.203876267887095 68.68387784106164 2.6934411065145953 C 74.6714449422066 0.03437650098518841 75.3539747425502 -0.044030091631964585 90.18387784106164 0.2235976792822978 L 101.63856869292802 2.782020747578363 C 99.51478147403843 4.037132158746463 96.97643545709815 4.809908575177709 95.99779976639407 4.499301672981133 C 94.675252836395 4.079541583666331 93.947055307941 4.713120018676731 93.16125058387695 6.967280925402769 C 92.37726842475483 9.21621361891472 91.47933963920475 9.999999999999998 89.68687820221217 10.0 C 88.35743975197688 10.000000000000002 86.19653097229197 10.836343876776182 84.88485869180127 11.85854194839151 C 83.24495419094077 13.136534358039583 80.16661268202081 13.880664335774751 75.0300117855651 14.240762045697707 C 68.18481149933871 14.720639886457127 67.34232286966777 15.025210518486537 64.95718571083188 17.8822200973062 C 62.22810635165667 21.151216952115192 61.754891360111685 21.421558026778353 60.66666666666667 20.333333333333336 Z" fill="blue" /><path d="M 41.51523072835019 17.952012224282498 C 42.24650357395757 15.647975510052643 40.58149321308033 13.150659931564622 37.57176656849887 12.037289582906714 C 35.62909196472252 11.318647474717473 35.6363666193674 11.264978196334644 37.83601733975353 10.087760856437564 C 40.303658872766825 8.767119186198425 45.32469526085363 9.855975104071156 49.83419797576207 12.68967189221914 C 52.065528902976396 14.091803275983226 52.091750831866015 14.241135128806475 50.42921041364998 16.078221612443823 C 49.47265836781919 17.13519972559972 47.66132692619499 18.0 46.40402943226286 18.0 C 45.146731938330724 18.0 43.83991869381244 18.45 43.5 19.0 C 42.366173419927385 20.83456994390555 40.853795022648605 20.036011594959565 41.51523072835019 17.952012224282498 Z" fill="blue" /><path d="M 119.15481836871123 11.329618367501283 C 117.31598685339017 10.942540066825137 116.93519470428853 10.367862670955942 117.39116368541879 8.667976096256579 C 117.71100350681677 7.4755892433154605 117.97883524089671 5.978344741231521 117.98634531670756 5.3407660916256035 C 118.00749494921189 3.5452377279432943 131.92723492642156 3.6468023213655183 132.6182377693939 5.447526865202391 C 134.03108796190278 9.129355448528944 125.79540703524907 12.72747769018313 119.15481836871123 11.329618367501283 Z" fill="blue" /><path d="M 89.36119900392865 3.49888622505451 C 88.66918279279014 1.6955208861075302 86.83922448771766 1.5607755122823337 85.20700003042843 3.1929999695715687 C 84.28300007099969 4.116999929000323 84.51136389252594 4.915419477227335 86.21978078083592 6.73394592059392 C 88.3955611147917 9.049957954500723 88.4358356423607 9.054118252784495 89.18096855852048 7.03983217607686 C 89.59644244025849 5.916699326794547 89.67754614069217 4.3232736488344905 89.36119900392865 3.49888622505451 Z" fill="blue" /><path d="M 291.55887036489514 5.53180337187046 C 293.3797148530019 4.15458585407074 293.2712824401987 4.061635997845699 289.80901699437493 4.03180337187046 C 286.08554492579793 3.999720057841174 283.9202770924974 5.3989016009220805 286.2437694101251 6.335642434953979 C 288.4235695837079 7.2144522408368665 289.56180259261095 7.042309479441849 291.55887036489514 5.53180337187046 Z" fill="blue" /><path d="M 112.18975293941975 4.381675632008827 C 113.07983134181488 3.4915972296136824 114.30860026647156 3.0726914648668098 114.92035054976792 3.450773932571333 C 116.54821225475506 4.456847795237741 115.22030300987491 6.0 112.72669729133933 6.0 C 110.7408658748294 6.0 110.69865378209818 5.872774789330391 112.18975293941975 4.381675632008827 Z" fill="blue" /><path d="M 147.2 2.8 C 144.9547554239599 0.5547554239599126 145.99313533440716 -9.466020687687582e-19 152.44098300562507 8.881784197001252e-16 C 158.7977024335718 1.7647373255472822e-15 161.6219593390365 1.3585684797979656 158.87811529493746 3.0964906243579273 C 156.83269101424975 4.392040989209308 148.5825825493848 4.182582549384789 147.2 2.8 Z" fill="blue" /><path d="M 311.0 3.0 C 312.17323286723075 2.24179868898205 311.9137834659474 2.0272897414183357 309.80901699437493 2.015312774517062 C 308.3289763412812 2.006890748532678 306.8399186938125 2.45 306.5 3.0 C 305.7108343520806 4.276896841087376 309.0241430339714 4.276896841087376 311.0 3.0 Z" fill="blue" /><path d="M 165.56922088566807 2.112001745742351 C 164.89448306683929 1.0202530213823624 170.29648224682455 0.14285780311970064 173.69410427770458 0.7923544078592 C 175.52380372587476 1.1421236195252908 175.82812165256217 1.493803088858187 174.84195033552413 2.118841798477116 C 173.0650898309662 3.245021984164769 166.26636640327635 3.2400068883371644 165.56922088566807 2.112001745742351 Z" fill="blue" /></svg>